<?xml version="1.0" standalone="no"?>
<!DOCTYPE svg PUBLIC "-//W3C//DTD SVG 20010904//EN"
 "http://www.w3.org/TR/2001/REC-SVG-20010904/DTD/svg10.dtd">
<svg version="1.0" xmlns="http://www.w3.org/2000/svg"
 width="954.000000pt" height="742.000000pt" viewBox="0 0 954.000000 742.000000"
 preserveAspectRatio="xMidYMid meet">

<g transform="translate(0.000000,742.000000) scale(0.100000,-0.100000)"
fill="#D00002" stroke="none">
<path d="M1211 6889 c-24 -5 -69 -23 -99 -41 -93 -56 -153 -147 -172 -259 -14
-87 -14 -3916 0 -4014 19 -132 89 -226 210 -284 l55 -26 790 0 790 0 57 23
c68 28 158 117 191 189 l22 48 0 2050 0 2050 -33 67 c-38 77 -97 134 -181 175
l-56 28 -765 2 c-421 0 -785 -3 -809 -8z m1604 -67 c108 -50 170 -141 186
-275 6 -52 9 -785 7 -2027 l-3 -1945 -23 -55 c-28 -66 -96 -138 -160 -171
l-47 -24 -780 0 -780 0 -57 33 c-65 38 -133 117 -148 172 -7 25 -9 715 -8
2067 l3 2028 21 45 c42 91 121 154 212 170 26 4 380 7 787 6 l740 -1 50 -23z"/>
<path d="M1750 6415 c-9 -24 -13 -25 -89 -25 -71 0 -82 -2 -91 -21 -30 -56 10
-89 108 -89 68 0 92 8 135 48 32 30 35 64 7 92 -28 28 -58 26 -70 -5z"/>
<path d="M2217 6403 c-4 -3 -7 -89 -7 -190 0 -178 -1 -183 -21 -183 -39 0 -59
-19 -59 -55 0 -31 3 -35 40 -45 l40 -11 -2 -1077 -3 -1076 -37 -9 c-20 -5 -39
-15 -42 -23 -7 -17 11 -66 27 -76 7 -4 132 -8 278 -8 297 0 293 -1 287 67 -3
35 -6 38 -38 43 l-35 5 -3 1077 -2 1076 40 7 c39 7 40 7 40 50 0 45 -10 55
-56 55 l-24 0 0 191 0 190 -52 -3 -53 -3 -3 -187 -2 -188 -105 0 -105 0 0 190
0 190 -48 0 c-27 0 -52 -3 -55 -7z m311 -621 l3 -140 -98 -4 c-54 -2 -101 -2
-105 0 -8 3 -11 275 -4 283 3 2 49 4 103 3 l98 -1 3 -141z m0 -434 l-3 -183
-100 0 -100 0 -3 183 -2 182 105 0 105 0 -2 -182z m0 -941 l2 -648 -102 3
-103 3 -3 635 c-1 349 0 641 3 648 3 9 30 12 102 10 l98 -3 3 -648z"/>
<path d="M1328 6192 c-16 -7 -18 -80 -21 -1137 -5 -1259 -13 -1493 -73 -2109
-19 -189 -19 -188 51 -184 l40 3 7 70 c18 182 39 446 48 600 27 448 33 645 39
1215 l6 615 270 5 c269 5 270 5 303 30 63 47 84 97 90 219 3 70 0 127 -8 161
-21 89 -92 150 -175 150 l-35 0 0 130 0 129 108 3 107 3 0 50 0 50 -370 2
c-203 1 -378 -1 -387 -5z m220 -229 l-3 -128 -60 0 -60 0 -3 114 c-1 63 0 121
2 128 4 9 25 13 66 13 l61 0 -3 -127z m210 0 l-3 -128 -50 0 -50 0 -3 128 -3
127 56 0 56 0 -3 -127z m-208 -414 l0 -169 -65 0 -65 0 0 169 c0 103 4 171 10
173 5 2 35 1 65 0 l55 -4 0 -169z m206 125 c-3 -26 -6 -102 -6 -169 l0 -123
-39 -4 c-22 -2 -45 -2 -50 0 -7 2 -11 62 -11 173 l0 169 56 0 57 0 -7 -46z
m189 34 l25 -11 0 -137 c0 -153 -5 -167 -63 -177 l-37 -6 0 172 0 171 25 0
c13 0 36 -5 50 -12z"/>
<path d="M1815 5170 c-11 -49 3 -1172 15 -1280 6 -52 26 -171 45 -265 63 -313
95 -566 95 -745 0 -63 4 -82 21 -104 37 -47 99 -26 99 34 0 60 -31 399 -46
505 -8 61 -31 183 -50 271 -62 293 -65 327 -71 753 -6 432 -9 411 56 411 25 0
43 9 72 39 43 43 49 71 19 101 -28 28 -51 25 -82 -10 -14 -16 -35 -30 -47 -30
-20 0 -21 6 -23 173 l-3 172 -47 3 c-45 3 -46 2 -53 -28z"/>
<path d="M1506 5148 c-3 -18 -8 -530 -11 -1138 -3 -608 -6 -1136 -7 -1175 l-3
-70 42 -3 c40 -3 43 -1 86 56 43 55 50 60 121 81 93 28 107 42 79 79 -18 24
-27 27 -74 26 -36 -1 -66 -8 -89 -23 -19 -11 -38 -21 -41 -21 -7 0 -10 1747
-3 1771 3 10 20 19 44 23 46 7 120 67 120 96 0 19 -44 60 -65 60 -6 0 -20 -9
-31 -21 -29 -33 -55 -43 -65 -28 -5 8 -9 83 -9 167 l0 152 -45 0 c-42 0 -44
-2 -49 -32z"/>
<path d="M2242 3528 c-9 -9 -12 -82 -13 -262 0 -138 -4 -287 -10 -331 -5 -44
-12 -101 -15 -127 -6 -40 -4 -47 16 -58 37 -20 67 -5 84 42 30 82 36 163 36
455 l0 293 -43 0 c-24 0 -48 -5 -55 -12z"/>
<path d="M2530 3525 c-19 -23 -8 -599 14 -684 20 -80 29 -91 72 -91 43 0 66
38 45 73 -19 30 -30 194 -30 463 -1 165 -4 233 -13 242 -17 17 -73 15 -88 -3z"/>
<path d="M4004 6889 c-82 -4 -111 -10 -157 -33 -66 -32 -129 -99 -166 -176
l-26 -55 0 -2050 0 -2050 28 -57 c37 -74 131 -161 200 -184 46 -15 126 -17
838 -16 l786 0 56 27 c71 35 134 98 172 172 l30 58 0 2050 0 2050 -27 55 c-50
103 -122 166 -225 201 -29 10 -199 13 -723 13 -377 1 -730 -1 -786 -5z m513
-478 c12 -14 23 -29 23 -33 0 -16 -67 -82 -97 -94 -41 -17 -130 -18 -163 -1
-13 7 -29 25 -34 40 -8 22 -6 31 15 53 22 24 28 25 81 19 54 -6 59 -4 88 24
35 33 52 32 87 -8z m636 3 l37 -7 0 -228 0 -227 135 -4 c107 -2 138 -6 146
-18 12 -19 4 -81 -13 -92 -7 -4 -70 -8 -140 -8 l-128 0 0 -384 0 -384 -22 -6
c-13 -3 -38 -6 -55 -6 -27 0 -33 4 -35 23 0 12 -2 186 -2 387 l-1 365 -142 5
c-78 3 -145 9 -150 13 -9 10 -8 85 2 95 3 4 71 8 151 10 l144 3 0 228 c0 125
3 231 7 234 8 8 17 9 66 1z m-205 -151 c2 -130 4 -144 22 -153 22 -12 26 -41
10 -71 -8 -14 -21 -19 -54 -19 -50 0 -58 8 -80 70 -16 47 -23 299 -9 314 4 4
30 6 58 4 l50 -3 3 -142z m495 60 c11 -149 -21 -288 -68 -307 -67 -25 -106 30
-69 99 11 21 18 69 21 163 l6 132 52 0 52 0 6 -87z m-718 -183 l0 -55 -86 -3
-87 -3 5 -112 c2 -62 6 -118 8 -124 3 -7 17 -13 32 -13 39 0 88 -32 118 -79
25 -37 27 -47 28 -173 2 -160 -5 -198 -45 -244 -55 -63 -61 -64 -333 -64
l-245 0 0 -277 c-1 -602 -26 -1484 -50 -1758 -30 -331 -43 -452 -52 -467 -12
-24 -96 -25 -105 -2 -3 9 4 122 16 253 50 557 72 1285 71 2371 -1 437 -1 798
-1 803 1 4 164 6 364 5 l362 -3 0 -55z m220 -396 c45 -21 48 -35 17 -79 -27
-37 -27 -38 -32 -269 l-5 -231 -48 -3 c-44 -3 -48 -1 -58 25 -7 19 -8 100 -3
251 6 196 9 225 25 244 11 11 19 27 19 34 0 15 27 44 42 44 5 0 25 -7 43 -16z
m434 -3 c44 -44 52 -100 49 -382 l-3 -264 -49 -3 c-32 -2 -52 1 -57 10 -5 7
-9 133 -9 280 0 257 -1 268 -20 278 -37 20 -19 75 30 93 27 10 40 7 59 -12z
m-771 -698 l3 -153 24 0 c15 0 31 11 45 30 25 36 53 38 74 8 44 -62 -10 -146
-100 -156 l-47 -5 6 -406 c7 -447 9 -467 72 -791 54 -278 78 -481 79 -670 l1
-145 -44 -3 c-24 -2 -48 1 -52 5 -5 5 -16 92 -24 194 -21 252 -40 393 -80 604
-71 365 -67 314 -72 1002 -5 710 -13 640 72 639 l40 -1 3 -152z m-310 -10 c1
-86 7 -143 12 -143 6 0 28 11 50 25 67 42 90 32 90 -40 0 -41 -38 -76 -104
-95 l-46 -13 0 -816 c0 -449 -3 -854 -7 -900 -6 -80 -5 -84 13 -78 10 3 46 16
79 27 71 25 110 17 121 -25 9 -35 -9 -53 -91 -90 -51 -24 -84 -48 -121 -89
-56 -61 -81 -69 -115 -35 -18 18 -20 29 -15 72 4 29 12 567 19 1197 8 630 14
1146 15 1148 1 2 23 2 50 0 l47 -3 3 -142z m622 -3 l0 -50 80 0 c78 0 81 -1
91 -27 14 -36 4 -343 -16 -473 -8 -52 -30 -167 -51 -255 -20 -88 -44 -196 -54
-240 -60 -261 -71 -558 -30 -825 13 -85 24 -173 24 -195 l1 -40 -52 -3 -51 -3
-11 53 c-48 246 -63 528 -40 764 5 60 24 174 40 254 17 80 37 179 46 221 9 42
13 87 10 100 -7 29 -62 97 -71 88 -4 -3 -10 -26 -14 -50 l-8 -44 -44 0 c-45 0
-45 0 -48 39 -2 21 6 68 17 105 44 149 71 339 71 507 0 61 3 114 7 117 3 4 28
7 55 7 l48 0 0 -50z m578 -72 c-3 -49 -5 -53 -30 -56 l-28 -3 0 -180 0 -179
29 -6 c34 -7 45 -34 33 -79 -6 -22 -15 -31 -34 -33 l-25 -3 5 -802 c3 -579 2
-809 -6 -824 -13 -23 -61 -36 -98 -27 l-24 6 0 824 0 824 -74 0 c-49 0 -77 4
-85 13 -15 19 -25 196 -16 300 l7 88 51 -3 52 -3 5 -140 5 -140 25 0 25 0 3
182 2 182 -82 3 -83 3 -3 39 c-6 68 -11 66 178 66 l171 0 -3 -52z"/>
<path d="M4120 5959 l0 -120 51 3 50 3 6 118 5 117 -56 0 -56 0 0 -121z"/>
<path d="M4340 5960 l0 -120 50 0 50 0 0 120 0 120 -50 0 -50 0 0 -120z"/>
<path d="M4120 5555 l0 -164 34 -6 c69 -13 68 -18 72 168 l5 167 -56 0 -55 0
0 -165z"/>
<path d="M4340 5555 l0 -165 24 -6 c13 -3 35 -4 47 -2 24 3 24 3 27 171 l2
167 -50 0 -50 0 0 -165z"/>
<path d="M4560 5718 c-1 -2 -1 -75 -2 -163 l-1 -160 28 2 c16 1 32 8 37 15 4
7 8 73 8 145 l0 132 -30 16 c-28 14 -39 18 -40 13z"/>
<path d="M4916 4798 c-21 -216 -21 -231 9 -266 15 -17 30 -32 35 -32 4 0 11
64 14 143 4 78 9 159 12 180 6 37 5 37 -29 37 l-34 0 -7 -62z"/>
<path d="M6629 6886 c-102 -27 -190 -103 -238 -205 l-26 -56 -3 -2035 -2
-2035 22 -59 c28 -77 110 -166 186 -203 l57 -28 800 0 800 0 58 30 c72 36 158
126 183 192 18 46 19 122 22 2038 2 1353 -1 2012 -8 2058 -23 152 -127 270
-267 303 -80 19 -1514 19 -1584 0z m1612 -62 c67 -31 124 -87 156 -152 l28
-57 0 -2035 0 -2035 -23 -43 c-33 -63 -84 -114 -144 -148 l-53 -29 -785 0
-785 0 -52 33 c-64 41 -109 91 -137 151 l-21 46 0 2020 c0 1988 0 2021 20
2073 37 102 127 177 228 192 29 4 383 7 787 6 728 -1 735 -1 781 -22z"/>
<path d="M6970 6410 c-12 -7 -15 -36 -17 -136 -1 -70 -4 -133 -7 -140 -4 -10
-24 -13 -73 -12 -37 0 -96 0 -129 -1 l-62 -1 -6 -36 c-12 -59 -1 -64 145 -64
96 0 129 -3 129 -12 1 -7 0 -736 0 -1619 0 -883 2 -1613 6 -1622 5 -13 19 -17
55 -17 l49 0 2 1633 3 1632 122 3 c118 3 123 3 128 25 9 35 -11 76 -40 83 -15
4 -61 3 -103 0 -117 -10 -112 -16 -112 138 0 89 -4 136 -12 144 -14 14 -57 16
-78 2z"/>
<path d="M7523 6412 c-8 -5 -13 -44 -15 -112 l-3 -105 -62 -3 -63 -3 0 -37 c0
-53 11 -64 66 -67 27 -2 51 -4 54 -4 7 -1 1 -2281 -6 -2292 -3 -5 -34 -9 -69
-9 -61 0 -65 -2 -71 -25 -3 -14 -3 -36 0 -50 l6 -25 403 2 402 3 3 48 3 47
-65 0 -66 0 0 1155 0 1155 44 0 c52 0 69 16 64 62 -3 32 -4 33 -55 36 l-53 3
0 95 c0 109 -9 134 -48 134 -48 0 -52 -10 -53 -109 0 -51 -3 -99 -6 -107 -4
-11 -36 -14 -159 -14 l-154 0 -2 43 c0 23 0 67 1 98 2 41 -2 60 -14 72 -17 18
-61 22 -82 9z m408 -339 c1 -43 -2 -268 -4 -270 -1 -1 -70 -3 -152 -4 l-150
-2 -5 54 c-3 30 -4 96 -2 147 l3 92 155 0 c140 0 154 -2 155 -17z m4 -416 c4
-18 5 -121 3 -228 l-4 -194 -157 -3 -157 -3 0 231 0 230 155 0 154 0 6 -33z
m-3 -824 c2 -164 2 -467 -1 -673 l-6 -375 -151 -3 -152 -2 -6 122 c-3 68 -5
146 -3 173 2 28 4 276 5 553 l2 502 153 0 154 0 5 -297z"/>
<path d="M6750 5323 c-1 -918 -18 -1552 -61 -2223 l-20 -315 22 -18 c13 -10
34 -17 48 -15 21 2 28 11 38 43 14 46 50 684 63 1110 5 160 10 665 10 1123 l0
832 -50 0 -50 0 0 -537z"/>
<path d="M7160 5148 c0 -392 5 -877 10 -1078 13 -499 49 -1204 66 -1283 6 -29
33 -41 75 -35 23 3 24 6 23 98 0 52 -10 259 -22 460 -31 511 -42 865 -42 1285
0 199 -3 565 -7 813 l-6 452 -49 0 -48 0 0 -712z"/>
<path d="M7519 3569 l-26 -10 -6 -282 c-5 -265 -7 -287 -31 -366 -32 -103 -32
-127 -5 -141 36 -20 65 -4 90 47 45 93 51 143 56 444 l5 286 -23 17 c-26 18
-25 18 -60 5z"/>
<path d="M7972 3564 c-22 -15 -22 -18 -22 -259 0 -261 10 -367 42 -452 31 -84
83 -117 122 -78 13 13 13 21 2 58 -8 23 -22 60 -31 82 -16 34 -19 82 -23 341
l-5 302 -24 11 c-31 14 -34 14 -61 -5z"/>
<path d="M840 1560 l0 -40 3840 0 3840 0 0 40 0 40 -3840 0 -3840 0 0 -40z"/>
<path d="M1268 850 c-42 -23 -80 -69 -97 -119 -17 -53 -13 -170 8 -216 39 -87
133 -136 223 -118 44 9 48 8 71 -19 24 -26 67 -39 67 -19 0 5 -12 23 -26 40
l-25 31 25 33 c98 129 64 328 -68 391 -47 22 -132 20 -178 -4z m172 -53 c53
-35 73 -78 73 -155 1 -68 -30 -162 -52 -162 -6 0 -18 12 -28 26 -17 27 -58 48
-74 38 -5 -3 3 -21 17 -40 43 -55 18 -78 -57 -53 -76 26 -109 83 -109 192 0
107 59 176 151 177 31 0 57 -7 79 -23z"/>
<path d="M2008 862 c-17 -3 -18 -23 -18 -233 l0 -230 26 3 26 3 1 227 c1 145
-2 229 -8 231 -5 2 -18 2 -27 -1z"/>
<path d="M2496 862 c-3 -3 -6 -108 -6 -234 l0 -228 135 0 135 0 0 25 c0 24 -1
24 -107 27 l-108 3 -3 201 c-2 189 -4 202 -22 207 -10 3 -21 2 -24 -1z"/>
<path d="M3670 634 l0 -235 28 3 27 3 0 178 c0 97 3 177 7 177 4 0 50 -64 104
-142 135 -199 151 -218 180 -218 l24 0 -2 233 c-3 224 -4 232 -23 232 -19 0
-20 -8 -25 -185 l-5 -185 -74 105 c-41 58 -94 132 -117 165 -57 81 -81 105
-104 105 -19 0 -20 -8 -20 -236z"/>
<path d="M5095 856 c-100 -44 -149 -183 -110 -314 21 -70 64 -117 126 -137
100 -34 194 6 243 103 l17 32 -29 0 c-20 0 -32 -8 -46 -31 -37 -63 -128 -82
-198 -41 -94 55 -100 247 -11 321 67 55 170 38 210 -36 20 -37 63 -47 63 -15
0 30 -49 91 -90 112 -45 23 -129 26 -175 6z"/>
<path d="M5792 863 c-13 -5 -15 -181 -4 -380 4 -79 5 -83 28 -83 23 0 23 2 26
103 l3 102 122 3 122 3 3 -103 3 -103 28 -3 27 -3 0 229 c0 126 -2 231 -5 234
-3 3 -17 3 -30 0 -25 -4 -25 -6 -25 -103 l0 -99 -125 0 -125 0 0 99 c0 81 -3
100 -16 105 -9 3 -16 6 -17 5 -1 0 -8 -3 -15 -6z"/>
<path d="M6623 863 l-33 -4 0 -230 0 -229 139 0 c77 0 142 4 145 9 4 5 3 16 0
25 -5 13 -25 16 -114 16 -126 0 -127 0 -115 100 l7 59 101 3 c94 3 102 4 102
23 0 18 -8 20 -105 25 l-105 5 0 75 0 75 113 3 c111 3 113 3 110 25 -3 21 -8
22 -108 23 -58 1 -120 -1 -137 -3z"/>
<path d="M7358 848 c-117 -68 -76 -192 78 -234 87 -23 124 -47 124 -80 0 -55
-47 -94 -115 -94 -44 0 -71 13 -103 51 -23 28 -62 40 -62 19 0 -21 30 -68 55
-88 32 -25 93 -36 151 -27 76 11 145 90 130 149 -13 53 -54 85 -144 113 -86
27 -132 57 -132 88 0 9 13 30 29 46 25 25 37 29 81 29 46 0 56 -4 87 -35 53
-53 91 -42 56 17 -39 67 -158 91 -235 46z"/>
<path d="M8098 849 c-72 -38 -89 -115 -37 -174 25 -28 49 -41 116 -61 47 -15
94 -36 104 -47 64 -69 -45 -155 -147 -117 -14 6 -39 24 -54 40 -49 52 -80 31
-44 -30 51 -85 214 -93 283 -15 25 29 31 45 31 82 0 64 -41 101 -145 132 -111
32 -147 75 -110 128 37 53 142 48 189 -8 25 -30 55 -36 63 -13 5 16 -43 72
-78 89 -40 21 -126 18 -171 -6z"/>
<path d="M3179 645 c-1 -118 -2 -221 -3 -227 -1 -7 11 -14 27 -16 l27 -3 0
230 0 231 -25 0 -25 0 -1 -215z"/>
</g>
</svg>
