<?xml version="1.0" standalone="no"?>
<!DOCTYPE svg PUBLIC "-//W3C//DTD SVG 20010904//EN"
 "http://www.w3.org/TR/2001/REC-SVG-20010904/DTD/svg10.dtd">
<svg version="1.0" xmlns="http://www.w3.org/2000/svg"
 width="954.000000pt" height="742.000000pt" viewBox="0 0 954.000000 742.000000"
 preserveAspectRatio="xMidYMid meet">

<g transform="translate(0.000000,742.000000) scale(0.100000,-0.100000)"
fill="#D00002" stroke="none">
<path d="M1224 6890 c-152 -31 -264 -156 -285 -318 -12 -95 -11 -3898 1 -3992
18 -136 87 -232 208 -288 l57 -27 790 0 c884 0 826 -5 928 73 59 45 94 95 118
169 18 54 19 130 19 2057 0 1629 -3 2011 -14 2057 -26 111 -92 191 -202 245
l-59 29 -760 2 c-418 0 -778 -3 -801 -7z m1587 -66 c109 -51 173 -142 190
-272 6 -51 9 -743 7 -2027 l-3 -1950 -23 -56 c-26 -66 -98 -143 -162 -173 -45
-21 -51 -21 -825 -21 l-780 0 -56 33 c-54 30 -109 87 -140 142 -12 21 -14 332
-17 2045 -1 1401 1 2036 8 2072 24 112 126 209 237 223 32 4 387 7 788 6 723
-1 730 -1 776 -22z"/>
<path d="M1746 6415 c-15 -23 -23 -25 -91 -25 -63 0 -76 -3 -85 -19 -15 -29
-12 -49 10 -71 16 -16 33 -20 91 -20 75 0 98 8 142 48 32 31 35 60 7 90 -27
29 -54 28 -74 -3z"/>
<path d="M2217 6403 c-4 -3 -7 -89 -7 -190 0 -178 -1 -183 -21 -183 -39 0 -59
-19 -59 -55 0 -31 3 -35 40 -45 l40 -11 -2 -1077 -3 -1076 -37 -9 c-20 -5 -39
-15 -42 -23 -7 -17 11 -66 27 -76 7 -4 130 -8 274 -8 290 0 293 1 293 65 0 35
-13 45 -56 45 l-24 0 2 1083 3 1082 35 5 c32 5 35 8 38 44 4 43 -7 56 -50 56
l-28 0 -2 188 -3 187 -50 0 -50 0 -3 -187 -2 -188 -105 0 -105 0 0 190 0 190
-48 0 c-27 0 -52 -3 -55 -7z m311 -621 l3 -142 -106 0 -105 0 0 138 c0 76 2
141 5 143 2 3 48 5 102 4 l98 -1 3 -142z m0 -434 l-3 -183 -100 0 -100 0 -3
183 -2 182 105 0 105 0 -2 -182z m2 -938 l0 -651 -102 3 -103 3 -3 635 c-1
349 0 641 3 648 3 8 34 12 105 12 l100 0 0 -650z"/>
<path d="M1328 6192 c-16 -7 -18 -80 -21 -1147 -3 -695 -9 -1216 -16 -1335
-19 -316 -39 -594 -58 -768 -19 -185 -19 -184 52 -180 l40 3 7 65 c55 526 79
1036 87 1820 l6 615 270 5 270 5 37 29 c66 54 82 95 86 228 5 144 -10 200 -68
252 -35 31 -57 40 -130 49 -12 2 -16 25 -18 129 l-3 127 108 3 108 3 3 44 c2
28 -1 47 -10 52 -15 10 -725 11 -750 1z m220 -229 l-3 -128 -60 0 -60 0 -3
114 c-1 63 0 121 2 128 4 9 25 13 66 13 l61 0 -3 -127z m210 0 l-3 -128 -50 0
-50 0 -3 128 -3 127 56 0 56 0 -3 -127z m-208 -413 l0 -171 -62 3 -63 3 -3
168 -2 167 65 0 65 0 0 -170z m204 153 c-1 -7 -2 -83 -2 -168 l-2 -155 -50 0
-50 0 0 171 0 170 53 -3 c34 -2 52 -7 51 -15z m194 1 c21 -14 22 -22 22 -147
0 -73 -4 -137 -8 -143 -11 -16 -48 -34 -71 -34 -20 0 -21 5 -21 170 l0 170 28
0 c15 0 38 -7 50 -16z"/>
<path d="M1814 5175 c-3 -14 -4 -292 -1 -618 6 -641 8 -678 67 -961 55 -265
90 -544 90 -724 0 -64 3 -76 25 -97 28 -29 57 -32 81 -8 14 15 16 30 10 118
-21 299 -58 572 -112 803 -37 160 -46 267 -51 656 -6 427 -9 406 56 406 25 0
43 9 72 39 43 43 49 71 19 101 -28 28 -51 25 -83 -11 -15 -18 -34 -29 -44 -27
-16 3 -19 21 -23 173 l-5 170 -47 3 c-44 3 -48 1 -54 -23z"/>
<path d="M1505 5158 c-2 -13 -7 -529 -10 -1148 -3 -619 -6 -1152 -7 -1185 l-3
-60 42 -3 c40 -3 43 -1 87 57 42 54 53 62 104 76 109 30 133 54 90 95 -20 19
-30 21 -75 16 -29 -3 -67 -15 -85 -26 -18 -11 -36 -20 -39 -20 -4 0 -5 395 -2
878 2 482 4 884 4 893 -1 11 11 18 38 23 27 4 54 20 87 50 l49 44 -24 26 c-38
40 -57 42 -97 6 -57 -50 -65 -34 -64 129 1 75 1 144 0 154 0 13 -9 17 -45 17
-38 0 -45 -3 -50 -22z"/>
<path d="M2242 3528 c-9 -9 -12 -82 -13 -262 0 -138 -4 -287 -10 -331 -5 -44
-12 -101 -16 -127 -5 -45 -4 -48 22 -58 39 -15 60 -5 78 38 30 69 37 155 37
454 l0 298 -43 0 c-24 0 -48 -5 -55 -12z"/>
<path d="M2524 3515 c-3 -14 -4 -159 -1 -322 4 -240 8 -310 22 -358 21 -75 29
-85 69 -85 56 0 71 37 40 99 -13 27 -17 85 -21 349 -3 187 -10 322 -16 330 -5
6 -27 12 -48 12 -33 0 -40 -4 -45 -25z"/>
<path d="M6635 6886 c-125 -31 -222 -126 -259 -256 -15 -50 -16 -254 -14
-2080 l3 -2025 28 -57 c40 -81 128 -160 210 -187 64 -22 71 -22 843 -19 l779
3 58 30 c35 17 80 53 113 87 98 107 89 -111 89 2193 0 1922 -1 2023 -18 2075
-38 115 -139 209 -254 236 -80 19 -1502 19 -1578 0z m1606 -62 c67 -31 124
-87 156 -152 l28 -57 0 -2035 0 -2035 -27 -51 c-32 -60 -93 -118 -157 -148
-46 -21 -50 -21 -821 -21 l-775 0 -43 23 c-66 35 -119 88 -149 150 l-28 57 0
2020 c0 1988 0 2021 20 2073 37 102 127 177 228 192 29 4 383 7 787 6 728 -1
735 -1 781 -22z"/>
<path d="M6972 6412 c-8 -6 -13 -46 -14 -138 -1 -71 -6 -135 -11 -141 -7 -9
-47 -13 -138 -13 l-129 0 0 -50 0 -50 135 0 c122 0 135 -2 135 -17 0 -10 0
-739 0 -1619 0 -881 3 -1609 6 -1618 4 -12 19 -16 55 -16 l49 0 2 1633 3 1632
122 3 c134 3 139 5 127 68 -8 41 -36 49 -140 39 -119 -11 -114 -17 -114 145 0
116 -2 139 -16 144 -22 8 -57 7 -72 -2z"/>
<path d="M7513 6408 c-4 -7 -9 -56 -10 -108 -1 -52 -2 -98 -2 -102 -1 -4 -27
-8 -58 -10 -52 -3 -58 -5 -61 -27 -2 -12 -1 -34 2 -47 6 -21 12 -24 55 -24 28
0 52 -5 57 -12 5 -8 7 -511 4 -1153 l-5 -1140 -66 -3 c-64 -3 -67 -4 -72 -31
-3 -15 -3 -38 0 -50 l5 -21 402 2 401 3 3 47 3 47 -63 3 -63 3 -3 1153 -2
1152 42 0 c59 0 70 10 66 56 l-3 39 -52 3 -53 3 0 99 c0 121 -3 130 -44 130
-52 0 -55 -7 -58 -120 l-3 -105 -157 -3 -158 -3 0 100 c0 77 -4 103 -16 115
-18 19 -79 21 -91 4z m415 -463 l-3 -146 -150 -1 -150 -1 -3 133 c-1 74 0 140
2 147 4 10 42 13 156 13 l151 0 -3 -145z m7 -278 c3 -12 5 -115 3 -227 l-3
-205 -157 -3 -158 -3 0 231 0 230 155 0 c152 0 155 0 160 -23z m-1 -587 c4
-27 6 -326 6 -664 -1 -486 -4 -617 -14 -625 -8 -7 -70 -11 -159 -10 l-147 1 0
674 0 674 154 0 153 0 7 -50z"/>
<path d="M6747 4983 c-7 -880 -17 -1220 -57 -1873 l-20 -325 21 -17 c25 -21
62 -23 77 -5 18 22 27 130 58 767 15 297 36 2203 25 2298 -3 31 -5 32 -50 32
l-48 0 -6 -877z"/>
<path d="M7163 4903 c5 -756 10 -1049 26 -1388 23 -478 37 -699 47 -733 7 -24
37 -36 75 -30 23 3 24 5 23 103 -1 55 -9 219 -18 365 -32 512 -37 683 -45
1646 -5 535 -12 977 -15 983 -4 6 -28 11 -53 11 l-46 0 6 -957z"/>
<path d="M7503 3563 c-10 -3 -13 -55 -13 -206 -1 -249 -13 -379 -43 -477 -13
-41 -22 -81 -19 -88 6 -18 50 -34 73 -27 27 9 67 102 84 200 19 112 22 574 3
593 -12 12 -62 15 -85 5z"/>
<path d="M7957 3563 c-4 -3 -7 -122 -7 -263 0 -332 21 -459 85 -524 21 -20 59
-21 79 -1 16 17 9 53 -29 140 -15 34 -18 85 -23 340 -3 203 -8 302 -16 307
-14 10 -80 10 -89 1z"/>
<path d="M3885 6872 c-91 -31 -162 -100 -207 -198 l-23 -49 0 -2050 0 -2050
24 -53 c15 -33 46 -73 86 -111 109 -101 48 -95 955 -96 l785 0 57 28 c72 35
131 95 171 172 l32 60 0 2050 0 2050 -26 55 c-36 76 -96 140 -165 175 l-59 30
-790 2 c-730 2 -794 1 -840 -15z m624 -454 c17 -18 31 -36 31 -40 0 -17 -67
-82 -97 -94 -38 -16 -120 -18 -157 -4 -14 5 -30 19 -36 30 -29 55 23 98 104
86 41 -6 48 -4 77 23 18 17 36 31 40 31 4 0 22 -15 38 -32z m644 -4 l37 -7 0
-228 0 -229 129 0 c123 0 131 -1 145 -22 21 -29 20 -57 -1 -80 -14 -16 -33
-18 -145 -18 l-128 0 0 -384 0 -384 -22 -6 c-13 -3 -38 -6 -55 -6 l-33 0 0
389 0 390 -144 3 c-80 2 -148 7 -152 11 -9 9 -8 86 1 96 4 3 71 7 151 9 l144
3 0 228 c0 125 3 231 7 234 8 8 17 9 66 1z m-209 -20 c3 -9 6 -72 6 -142 0
-116 2 -128 22 -149 18 -19 20 -28 12 -51 -9 -24 -14 -27 -59 -27 -48 0 -51 1
-70 40 -16 33 -21 64 -23 178 -2 76 -1 145 2 153 8 21 102 19 110 -2z m500
-66 c14 -169 -26 -310 -89 -316 -17 -1 -36 2 -43 7 -17 11 -18 77 -2 96 8 10
15 66 18 155 l5 140 52 0 53 0 6 -82z m-719 -188 l0 -55 -87 -3 -87 -3 6 -112
c2 -62 6 -118 9 -124 2 -7 15 -13 29 -13 38 0 80 -25 111 -65 54 -71 55 -343
2 -421 -46 -68 -74 -74 -346 -74 l-242 0 0 -317 c-1 -688 -24 -1410 -60 -1818
-35 -409 -29 -385 -95 -385 -38 0 -45 3 -50 23 -3 12 3 121 14 242 50 542 72
1286 71 2345 -1 454 -1 828 0 833 0 4 163 6 363 5 l362 -3 0 -55z m233 -403
c12 -6 22 -19 22 -29 0 -10 -10 -33 -22 -49 -22 -29 -23 -42 -28 -262 l-5
-232 -48 -3 c-41 -3 -48 0 -56 20 -5 13 -7 120 -4 238 4 208 5 217 31 272 32
69 47 75 110 45z m407 17 c9 -4 26 -25 38 -48 21 -40 22 -51 22 -326 l0 -285
-51 -3 c-46 -3 -52 -1 -58 20 -3 13 -6 139 -6 281 0 250 -1 259 -20 264 -37
10 -22 66 25 91 24 13 28 14 50 6z m-757 -711 c3 -152 3 -153 26 -153 13 0 34
13 49 30 47 52 87 32 87 -42 0 -50 -53 -99 -116 -106 l-47 -5 6 -406 c7 -443
9 -474 67 -761 21 -107 44 -229 49 -270 20 -135 41 -391 41 -487 0 -92 0 -93
-24 -93 -13 0 -30 -2 -38 -5 -7 -3 -21 0 -31 7 -14 11 -20 52 -36 243 -22 254
-45 414 -91 640 -54 262 -60 361 -60 987 0 444 3 567 13 572 6 3 32 4 57 3
l45 -2 3 -152z m-310 -10 c3 -158 4 -161 62 -118 60 44 90 31 90 -40 0 -38
-25 -61 -104 -95 l-46 -19 0 -834 c0 -459 -3 -862 -7 -897 -7 -72 -15 -69 89
-29 68 26 104 20 119 -18 16 -43 -2 -65 -79 -96 -55 -22 -81 -40 -125 -87 -59
-64 -81 -72 -115 -40 -25 23 -25 30 -12 155 5 50 13 576 16 1170 3 594 8 1084
11 1088 3 4 26 7 51 5 l47 -3 3 -142z m622 -3 l0 -50 80 0 c78 0 81 -1 91 -27
13 -32 6 -319 -11 -449 -6 -45 -31 -171 -56 -280 -124 -541 -136 -740 -73
-1138 12 -74 19 -142 16 -151 -5 -11 -20 -15 -56 -15 l-50 0 -10 53 c-42 201
-62 554 -42 752 11 106 31 216 86 475 20 91 14 128 -26 171 -35 37 -46 31 -51
-26 l-3 -40 -45 0 c-45 0 -45 0 -48 39 -2 21 6 68 17 105 44 149 71 340 71
512 0 58 3 109 7 112 3 4 28 7 55 7 l48 0 0 -50z m578 -72 c-3 -49 -5 -53 -30
-56 l-28 -3 0 -180 0 -179 30 -7 c21 -4 32 -13 37 -31 9 -38 -8 -77 -37 -80
l-25 -3 3 -796 c2 -438 1 -807 -3 -820 -7 -29 -49 -46 -92 -38 l-33 6 0 824 0
825 -74 0 c-47 0 -77 5 -84 13 -12 15 -15 63 -13 245 l1 143 53 -3 52 -3 3
-138 3 -138 32 3 c18 2 32 8 31 16 -1 6 -2 86 -2 177 l-2 164 -82 3 -83 3 -3
44 c-2 28 1 47 10 52 7 5 86 9 176 9 l163 0 -3 -52z"/>
<path d="M4120 5960 l0 -120 53 0 52 0 3 120 3 120 -55 0 -56 0 0 -120z"/>
<path d="M4340 5960 l0 -120 50 0 50 0 0 120 0 120 -50 0 -50 0 0 -120z"/>
<path d="M4120 5555 l0 -164 34 -6 c71 -14 69 -18 73 168 l5 167 -56 0 -56 0
0 -165z"/>
<path d="M4340 5555 l0 -165 24 -6 c13 -3 35 -4 47 -2 24 3 24 3 27 171 l2
167 -50 0 -50 0 0 -165z"/>
<path d="M4555 5550 c0 -158 0 -160 22 -160 46 0 53 21 53 170 0 134 -1 138
-22 144 -54 14 -53 18 -53 -154z"/>
<path d="M4912 4738 c-7 -68 -12 -135 -12 -150 0 -25 43 -88 60 -88 4 0 11 55
14 123 4 67 9 148 12 180 l6 57 -34 0 -35 0 -11 -122z"/>
<path d="M840 1560 l0 -40 3838 2 3837 3 3 38 3 37 -3840 0 -3841 0 0 -40z"/>
<path d="M1175 855 c-39 -18 -66 -42 -95 -84 -19 -27 -25 -51 -28 -116 -5 -96
7 -142 51 -191 51 -59 121 -82 196 -65 38 8 43 7 57 -14 17 -26 62 -41 77 -26
6 6 1 20 -16 40 l-26 31 34 56 c103 170 11 385 -164 384 -31 -1 -69 -7 -86
-15z m145 -60 c54 -28 75 -71 75 -155 0 -79 -18 -140 -42 -140 -8 0 -24 12
-36 26 -16 19 -30 25 -50 22 l-27 -3 27 -38 c23 -32 25 -40 13 -48 -20 -12
-69 -2 -100 20 -88 63 -89 249 -1 308 40 27 98 30 141 8z"/>
<path d="M1897 863 c-16 -4 -17 -22 -15 -231 l3 -227 33 -3 32 -3 -2 233 c-3
248 -2 244 -51 231z"/>
<path d="M2402 863 l-22 -4 2 -227 3 -227 138 -3 138 -3 -3 28 -3 28 -102 3
-103 3 -2 201 c-2 124 -7 202 -13 203 -5 1 -20 0 -33 -2z"/>
<path d="M3080 845 c-6 -17 -9 -110 -8 -234 l3 -206 30 0 30 0 0 230 0 230
-22 3 c-17 3 -26 -4 -33 -23z"/>
<path d="M3575 858 c-3 -7 -4 -112 -3 -233 l3 -220 30 0 30 0 5 170 5 170 103
-150 c134 -196 135 -197 169 -193 l28 3 3 228 4 227 -36 0 -36 0 0 -165 c0
-91 -4 -165 -8 -165 -5 0 -52 64 -105 143 -53 78 -104 152 -114 164 -23 28
-71 41 -78 21z"/>
<path d="M4982 853 c-85 -42 -129 -132 -120 -248 9 -108 64 -180 156 -205 50
-13 126 -1 168 26 35 23 80 102 66 116 -16 16 -57 1 -70 -26 -24 -53 -132 -78
-186 -43 -93 61 -91 273 4 322 62 32 156 7 181 -49 17 -36 79 -45 79 -11 0 23
-64 97 -100 116 -44 24 -133 25 -178 2z"/>
<path d="M6543 863 l-63 -4 0 -229 0 -230 144 0 c87 0 147 4 151 10 3 6 3 19
0 30 -6 18 -15 20 -116 20 l-109 0 0 70 0 69 103 3 c101 3 102 3 102 28 0 25
-1 25 -103 28 l-103 3 3 72 3 72 108 3 108 3 -3 27 c-3 27 -4 27 -83 28 -44 0
-108 -1 -142 -3z"/>
<path d="M7265 850 c-49 -24 -75 -65 -75 -115 0 -58 45 -96 152 -129 101 -31
122 -51 106 -98 -23 -65 -140 -77 -188 -20 -24 28 -39 36 -67 33 -21 -2 -15
-38 12 -70 71 -83 241 -77 295 12 11 18 20 49 20 71 0 59 -45 98 -153 131
-115 35 -143 70 -92 120 19 20 34 25 76 25 46 0 55 -4 85 -36 27 -30 37 -35
58 -30 32 8 32 14 4 56 -47 69 -151 91 -233 50z"/>
<path d="M8015 856 c-17 -7 -44 -28 -59 -47 -24 -28 -27 -39 -23 -78 6 -58 44
-93 124 -115 122 -35 153 -60 134 -109 -27 -70 -165 -74 -201 -7 -7 13 -21 20
-40 20 -76 0 9 -112 94 -124 72 -11 130 2 172 38 31 27 37 39 42 84 4 48 2 54
-30 86 -22 22 -54 40 -93 51 -98 29 -113 36 -129 61 -12 17 -13 30 -6 48 12
33 39 46 96 46 40 0 51 -5 80 -35 35 -37 55 -43 73 -21 16 19 -24 76 -69 98
-41 21 -122 23 -165 4z"/>
<path d="M5670 630 l0 -230 35 0 35 0 0 100 0 100 120 0 120 0 0 -100 0 -100
35 0 35 0 0 230 0 230 -35 0 -34 0 -3 -97 -3 -98 -115 0 -115 0 -3 98 -3 97
-34 0 -35 0 0 -230z"/>
</g>
</svg>
